<svg width="32" height="32" viewBox="0 0 40 47" fill="none" xmlns="http://www.w3.org/2000/svg">
  <!-- Worm mascot body - red -->
  <path fill-rule="evenodd" clip-rule="evenodd" d="M16.1768 6.76665C16.8585 4.19156 19.0178 2.48157 21.1738 2.89262C22.9259 3.22675 24.1639 4.86419 24.3984 6.88579C33.3281 8.88981 40 16.8659 40 26.4004C39.9999 37.446 31.0456 46.4004 20 46.4004C8.95439 46.4004 0.000145094 37.446 0 26.4004C0 16.6623 6.96001 8.55093 16.1768 6.76665ZM23.583 0.708052C23.6706 0.249175 24.0554 -0.0629496 24.4434 0.0107863C24.8312 0.0849563 25.0756 0.516803 24.9883 0.97563C24.9008 1.43456 24.5149 1.74655 24.127 1.6729C24.101 1.66795 24.0776 1.69696 24.0889 1.72075C24.1909 1.92993 24.2289 2.18652 24.1787 2.45024C24.0693 3.02399 23.5876 3.41453 23.1025 3.32231C22.6174 3.22982 22.3125 2.68917 22.4219 2.11528C22.5315 1.54166 23.014 1.15172 23.499 1.24418C23.555 1.25457 23.6135 1.19268 23.5986 1.13774C23.5621 1.00535 23.5544 0.858321 23.583 0.708052Z" fill="#FF2A2D"/>
  <!-- Eye -->
  <ellipse cx="20.2" cy="23.8" rx="5" ry="6.19" fill="#000000"/>
  <ellipse cx="20.2" cy="23.8" rx="2.14" ry="3.1" fill="#FFEA2A"/>
  <!-- Legs -->
  <path d="M15.7 37h2.4l-.4 6h-1.6l-.4-6zM22.8 36.8h2.4l-.4 6h-1.6l-.4-6zM19.3 36.2h2.4l-.4 6h-1.6l-.4-6z" fill="#ffffff"/>
</svg>
